Coordinates
version=1
nRows=10
nColumns=34
inDegrees=yes

Units are S.I. units (second, meters, Newtons, ...)
If the header above contains a line with 'inDegrees', this indicates whether rotational values are in degrees (yes) or radians (no).

endheader
time	pelvis_tilt	pelvis_list	pelvis_rotation	pelvis_tx	pelvis_ty	pelvis_tz	hip_flexion_r	hip_adduction_r	hip_rotation_r	knee_angle_r	ankle_angle_r	subtalar_angle_r	mtp_angle_r	hip_flexion_l	hip_adduction_l	hip_rotation_l	knee_angle_l	ankle_angle_l	subtalar_angle_l	mtp_angle_l	lumbar_extension	lumbar_bending	lumbar_rotation	arm_flex_r	arm_add_r	arm_rot_r	elbow_flex_r	pro_sup_r	arm_flex_l	arm_add_l	arm_rot_l	elbow_flex_l	pro_sup_l
      9.63333330	     -4.55422658	      3.06770509	     -1.34452900	      0.08436367	      0.90832094	     -0.11639637	      2.82220337	     -4.29071543	     -2.52229113	      1.27611403	      2.63723673	     -9.62228620	      0.00000000	      1.62854427	     -1.86845746	     -4.24400432	      0.00000000	      3.56936808	     -1.22137413	      0.00000000	      0.01950156	     -1.12356917	      7.86124781	     89.68960696	     11.30511140	     52.60200773	    133.89665836	    115.72031229	    103.52801382	     10.25298765	     60.07499235	    125.78290813	    111.66818742
      9.65000000	     -4.60482285	      3.04862557	     -1.30887991	      0.08545425	      0.91003021	     -0.11531511	      2.93015748	     -4.22245500	     -2.51992302	      1.21533435	      2.62998162	     -9.61605795	      0.00000000	      1.75667162	     -1.92561770	     -4.24516306	      0.00000000	      3.56224961	     -1.21569378	      0.00000000	     -0.25282482	     -1.22704864	      7.89657975	     89.62732514	     11.28476595	     52.64579416	    133.88161195	    115.72480688	    103.45298670	     10.20269636	     60.12115350	    125.78172393	    111.67595048
      9.66666670	     -4.58321467	      3.00110811	     -1.32525259	      0.08267215	      0.91105988	     -0.11473051	      2.99222149	     -4.11053086	     -2.52821174	      1.23170730	      2.35497819	     -9.42548174	      0.00000000	      1.77029589	     -2.02901023	     -4.38794701	      0.00000000	      3.15583170	     -1.06811508	      0.00000000	     -0.52379809	     -1.19805332	      7.52679200	     89.52944144	     11.31920965	     54.05757022	    132.64124564	    115.84209799	    103.17274555	      9.21200814	     62.61092332	    123.82058341	    111.97875855
      9.68333330	     -4.63213332	      3.00770854	     -1.25394560	      0.08169855	      0.91217834	     -0.11431672	      3.18643503	     -4.07131443	     -2.63311232	      1.34701806	      2.11301625	     -9.31774249	      0.00000000	      1.89319894	     -2.05480427	     -4.43451829	      0.00000000	      2.79805986	     -1.00399971	      0.00000000	     -0.78986632	     -1.26826766	      7.09775327	     89.63592647	     11.82405216	     54.98165733	    132.11763172	    115.86384631	    103.15486516	      8.54824586	     64.56905923	    121.64825401	    112.20110992
      9.70000000	     -4.71630872	      3.00485427	     -1.17039768	      0.08077093	      0.91091449	     -0.11370696	      3.42842933	     -4.01584729	     -2.73671655	      1.42803009	      2.08986059	     -9.25297272	      0.00000000	      2.08593544	     -2.08769511	     -4.45124194	      0.00000000	      2.58231419	     -1.01805424	      0.00000000	     -0.89748984	     -1.45603867	      7.63068481	     89.87046886	     11.64590544	     54.96043440	    132.78496291	    115.87498321	    103.36468788	      9.27392427	     64.05728011	    123.01420484	    112.22948437
      9.71666670	     -4.75354766	      3.00660179	     -1.06365554	      0.07929955	      0.91277067	     -0.11361574	      3.60416260	     -3.98717561	     -2.88205376	      1.51843812	      1.93104203	     -9.17688827	      0.00000000	      2.26504519	     -2.13515227	     -4.50890427	      0.00000000	      2.25155480	     -0.98245235	      0.00000000	     -1.26836851	     -1.67740772	      7.73592748	     90.23023240	     10.96042947	     54.67591959	    132.46349238	    115.89641897	    103.41935923	      9.48915359	     63.38748041	    123.86065595	    112.22243965
      9.73333330	     -4.76784510	      2.98752444	     -0.95959437	      0.07577624	      0.91394838	     -0.11352637	      3.71909122	     -3.91940913	     -2.85571377	      1.53077997	      1.90492471	     -9.14459314	      0.00000000	      2.40706601	     -2.18689532	     -4.50621519	      0.00000000	      2.24703055	     -0.97794091	      0.00000000	     -1.49176086	     -1.75398192	      7.78306071	     90.23224008	     10.94035961	     54.67441700	    132.44771102	    115.89720972	    103.37892532	      9.46081183	     63.38017561	    123.86770253	    112.22299941
      9.75000000	     -4.85535089	      2.94892597	     -0.94965202	      0.07169463	      0.91567123	     -0.11292896	      4.33196423	     -3.86407427	     -3.12178369	      2.05427062	      1.65180644	     -9.04778511	      0.00000000	      2.73737674	     -2.26007320	     -4.44820492	      0.00000000	      1.93535842	     -0.85719516	      0.00000000	     -2.07287700	     -1.79542191	      8.10200554	     90.87265407	     10.73329494	     54.67386393	    132.39719430	    115.91285852	    103.39131636	      9.29879040	     63.33450639	    123.89346928	    112.22551629
      9.76666670	     -5.03542219	      2.95016729	     -0.89853295	      0.07152407	      0.91270286	     -0.11221997	      4.98078478	     -3.84732834	     -3.17172454	      2.45193549	      1.70712036	     -8.92549925	      0.00000000	      3.33931521	     -2.30435333	     -4.46417496	      0.40357147	      1.75325704	     -0.98930688	      0.00000000	     -2.58767356	     -1.95337438	      7.77672021	     91.51993832	     10.60026319	     55.02534936	    132.25099183	    115.99854777	    103.81348385	      9.43840085	     62.54860820	    125.10603063	    112.18219007
      9.78333330	     -5.04192944	      2.88708761	     -0.95143468	      0.06622410	      0.91679118	     -0.11164688	      5.42818742	     -3.72168843	     -3.24193637	      2.79131244	      1.52713401	     -8.83665818	      0.00000000	      3.59936457	     -2.44894322	     -4.55533315	      0.49153109	      1.62215241	     -0.98490058	      0.00000000	     -3.19238736	     -2.12201372	      7.44509775	     91.61628550	     10.28531029	     55.13275669	    131.90028968	    116.01419238	    103.67808344	      9.29681001	     62.61584786	    125.08753252	    112.18134568
